<mxfile host="Electron" modified="2024-11-19T03:53:02.049Z" agent="Mozilla/5.0 (Windows NT 10.0; Win64; x64) AppleWebKit/537.36 (KHTML, like Gecko) draw.io/23.0.2 Chrome/120.0.6099.109 Electron/28.1.0 Safari/537.36" etag="4VnSWnBX4oomBCM4jPXJ" version="23.0.2" type="device">
  <diagram name="Page-1" id="3xY6vU8e73zWUQGWllxZ">
    <mxGraphModel dx="1793" dy="1882" grid="1" gridSize="10" guides="1" tooltips="1" connect="1" arrows="1" fold="1" page="1" pageScale="1" pageWidth="1169" pageHeight="827" math="0" shadow="0">
      <root>
        <mxCell id="0" />
        <mxCell id="1" parent="0" />
        <mxCell id="7fW1Iq1p9JtvThDw1KUJ-5" value="" style="edgeStyle=orthogonalEdgeStyle;rounded=0;orthogonalLoop=1;jettySize=auto;html=1;" edge="1" parent="1" source="7fW1Iq1p9JtvThDw1KUJ-1" target="7fW1Iq1p9JtvThDw1KUJ-4">
          <mxGeometry relative="1" as="geometry" />
        </mxCell>
        <mxCell id="7fW1Iq1p9JtvThDw1KUJ-7" value="" style="edgeStyle=orthogonalEdgeStyle;rounded=0;orthogonalLoop=1;jettySize=auto;html=1;" edge="1" parent="1" source="7fW1Iq1p9JtvThDw1KUJ-1" target="7fW1Iq1p9JtvThDw1KUJ-6">
          <mxGeometry relative="1" as="geometry" />
        </mxCell>
        <mxCell id="7fW1Iq1p9JtvThDw1KUJ-9" value="" style="edgeStyle=orthogonalEdgeStyle;rounded=0;orthogonalLoop=1;jettySize=auto;html=1;" edge="1" parent="1" source="7fW1Iq1p9JtvThDw1KUJ-1" target="7fW1Iq1p9JtvThDw1KUJ-8">
          <mxGeometry relative="1" as="geometry" />
        </mxCell>
        <mxCell id="7fW1Iq1p9JtvThDw1KUJ-11" value="" style="edgeStyle=orthogonalEdgeStyle;rounded=0;orthogonalLoop=1;jettySize=auto;html=1;" edge="1" parent="1" source="7fW1Iq1p9JtvThDw1KUJ-1" target="7fW1Iq1p9JtvThDw1KUJ-10">
          <mxGeometry relative="1" as="geometry" />
        </mxCell>
        <mxCell id="7fW1Iq1p9JtvThDw1KUJ-1" value="Choose Game Mode:" style="rounded=1;whiteSpace=wrap;html=1;" vertex="1" parent="1">
          <mxGeometry x="450" y="-690" width="160" height="50" as="geometry" />
        </mxCell>
        <mxCell id="7fW1Iq1p9JtvThDw1KUJ-37" style="edgeStyle=orthogonalEdgeStyle;rounded=0;orthogonalLoop=1;jettySize=auto;html=1;exitX=0;exitY=0.5;exitDx=0;exitDy=0;entryX=0;entryY=0.5;entryDx=0;entryDy=0;" edge="1" parent="1" source="7fW1Iq1p9JtvThDw1KUJ-2" target="7fW1Iq1p9JtvThDw1KUJ-41">
          <mxGeometry relative="1" as="geometry">
            <mxPoint x="420" y="-90" as="targetPoint" />
            <Array as="points">
              <mxPoint x="40" y="-770" />
              <mxPoint x="40" y="180" />
            </Array>
          </mxGeometry>
        </mxCell>
        <mxCell id="7fW1Iq1p9JtvThDw1KUJ-55" value="Leaderboard" style="edgeLabel;html=1;align=center;verticalAlign=middle;resizable=0;points=[];" vertex="1" connectable="0" parent="7fW1Iq1p9JtvThDw1KUJ-37">
          <mxGeometry x="-0.77" y="-1" relative="1" as="geometry">
            <mxPoint x="-1" as="offset" />
          </mxGeometry>
        </mxCell>
        <mxCell id="7fW1Iq1p9JtvThDw1KUJ-53" value="" style="edgeStyle=orthogonalEdgeStyle;rounded=0;orthogonalLoop=1;jettySize=auto;html=1;" edge="1" parent="1" source="7fW1Iq1p9JtvThDw1KUJ-2" target="7fW1Iq1p9JtvThDw1KUJ-1">
          <mxGeometry relative="1" as="geometry" />
        </mxCell>
        <mxCell id="7fW1Iq1p9JtvThDw1KUJ-54" value="Play" style="edgeLabel;html=1;align=center;verticalAlign=middle;resizable=0;points=[];" vertex="1" connectable="0" parent="7fW1Iq1p9JtvThDw1KUJ-53">
          <mxGeometry x="-0.08" y="-1" relative="1" as="geometry">
            <mxPoint as="offset" />
          </mxGeometry>
        </mxCell>
        <mxCell id="7fW1Iq1p9JtvThDw1KUJ-2" value="Title Screen&lt;br&gt;&lt;br&gt;PLAY&lt;br&gt;LEADERBOARD" style="whiteSpace=wrap;html=1;rounded=1;" vertex="1" parent="1">
          <mxGeometry x="470" y="-800" width="120" height="60" as="geometry" />
        </mxCell>
        <mxCell id="7fW1Iq1p9JtvThDw1KUJ-13" value="" style="edgeStyle=orthogonalEdgeStyle;rounded=0;orthogonalLoop=1;jettySize=auto;html=1;" edge="1" parent="1" source="7fW1Iq1p9JtvThDw1KUJ-4" target="7fW1Iq1p9JtvThDw1KUJ-12">
          <mxGeometry relative="1" as="geometry" />
        </mxCell>
        <mxCell id="7fW1Iq1p9JtvThDw1KUJ-4" value="Casual" style="ellipse;whiteSpace=wrap;html=1;rounded=1;" vertex="1" parent="1">
          <mxGeometry x="150" y="-617.5" width="60" height="55" as="geometry" />
        </mxCell>
        <mxCell id="7fW1Iq1p9JtvThDw1KUJ-16" value="" style="edgeStyle=orthogonalEdgeStyle;rounded=0;orthogonalLoop=1;jettySize=auto;html=1;" edge="1" parent="1" source="7fW1Iq1p9JtvThDw1KUJ-6" target="7fW1Iq1p9JtvThDw1KUJ-14">
          <mxGeometry relative="1" as="geometry" />
        </mxCell>
        <mxCell id="7fW1Iq1p9JtvThDw1KUJ-6" value="Arcade" style="ellipse;whiteSpace=wrap;html=1;rounded=1;" vertex="1" parent="1">
          <mxGeometry x="320" y="-620" width="60" height="60" as="geometry" />
        </mxCell>
        <mxCell id="7fW1Iq1p9JtvThDw1KUJ-24" value="" style="edgeStyle=orthogonalEdgeStyle;rounded=0;orthogonalLoop=1;jettySize=auto;html=1;" edge="1" parent="1" source="7fW1Iq1p9JtvThDw1KUJ-8" target="7fW1Iq1p9JtvThDw1KUJ-23">
          <mxGeometry relative="1" as="geometry" />
        </mxCell>
        <mxCell id="7fW1Iq1p9JtvThDw1KUJ-8" value="Versus" style="ellipse;whiteSpace=wrap;html=1;rounded=1;" vertex="1" parent="1">
          <mxGeometry x="945" y="-620" width="70" height="65" as="geometry" />
        </mxCell>
        <mxCell id="7fW1Iq1p9JtvThDw1KUJ-18" value="" style="edgeStyle=orthogonalEdgeStyle;rounded=0;orthogonalLoop=1;jettySize=auto;html=1;" edge="1" parent="1" source="7fW1Iq1p9JtvThDw1KUJ-10" target="7fW1Iq1p9JtvThDw1KUJ-17">
          <mxGeometry relative="1" as="geometry" />
        </mxCell>
        <mxCell id="7fW1Iq1p9JtvThDw1KUJ-10" value="Zen" style="ellipse;whiteSpace=wrap;html=1;rounded=1;" vertex="1" parent="1">
          <mxGeometry x="680" y="-620" width="60" height="60" as="geometry" />
        </mxCell>
        <mxCell id="7fW1Iq1p9JtvThDw1KUJ-31" style="edgeStyle=orthogonalEdgeStyle;rounded=0;orthogonalLoop=1;jettySize=auto;html=1;exitX=0.5;exitY=1;exitDx=0;exitDy=0;entryX=0;entryY=0.5;entryDx=0;entryDy=0;" edge="1" parent="1" source="7fW1Iq1p9JtvThDw1KUJ-12" target="7fW1Iq1p9JtvThDw1KUJ-29">
          <mxGeometry relative="1" as="geometry">
            <mxPoint x="350" y="-250" as="targetPoint" />
            <Array as="points">
              <mxPoint x="180" y="-220" />
            </Array>
          </mxGeometry>
        </mxCell>
        <mxCell id="7fW1Iq1p9JtvThDw1KUJ-12" value="Settings:&lt;br&gt;&lt;br&gt;THEME: tbd&lt;br&gt;DIFFICULTY: easy, intermediate, hard&lt;br&gt;TIMER: on/off" style="whiteSpace=wrap;html=1;rounded=1;" vertex="1" parent="1">
          <mxGeometry x="120" y="-520" width="120" height="150" as="geometry" />
        </mxCell>
        <mxCell id="7fW1Iq1p9JtvThDw1KUJ-30" style="edgeStyle=orthogonalEdgeStyle;rounded=0;orthogonalLoop=1;jettySize=auto;html=1;exitX=0.5;exitY=1;exitDx=0;exitDy=0;entryX=0;entryY=0.5;entryDx=0;entryDy=0;" edge="1" parent="1" source="7fW1Iq1p9JtvThDw1KUJ-14" target="7fW1Iq1p9JtvThDw1KUJ-29">
          <mxGeometry relative="1" as="geometry" />
        </mxCell>
        <mxCell id="7fW1Iq1p9JtvThDw1KUJ-14" value="Settings:&lt;br&gt;&lt;br&gt;THEME: tbd" style="whiteSpace=wrap;html=1;rounded=1;" vertex="1" parent="1">
          <mxGeometry x="290" y="-520" width="120" height="150" as="geometry" />
        </mxCell>
        <mxCell id="7fW1Iq1p9JtvThDw1KUJ-17" value="Settings:&lt;br&gt;&lt;br&gt;THEME: tbd&lt;br&gt;SOUND: on/off&lt;br&gt;GRID SIZE:&lt;br&gt;12, 20, 30" style="whiteSpace=wrap;html=1;rounded=1;" vertex="1" parent="1">
          <mxGeometry x="650" y="-520" width="120" height="150" as="geometry" />
        </mxCell>
        <mxCell id="7fW1Iq1p9JtvThDw1KUJ-26" value="" style="edgeStyle=orthogonalEdgeStyle;rounded=0;orthogonalLoop=1;jettySize=auto;html=1;" edge="1" parent="1" source="7fW1Iq1p9JtvThDw1KUJ-23" target="7fW1Iq1p9JtvThDw1KUJ-25">
          <mxGeometry relative="1" as="geometry" />
        </mxCell>
        <mxCell id="7fW1Iq1p9JtvThDw1KUJ-50" value="Create Room" style="edgeLabel;html=1;align=center;verticalAlign=middle;resizable=0;points=[];" vertex="1" connectable="0" parent="7fW1Iq1p9JtvThDw1KUJ-26">
          <mxGeometry x="0.2325" y="1" relative="1" as="geometry">
            <mxPoint y="1" as="offset" />
          </mxGeometry>
        </mxCell>
        <mxCell id="7fW1Iq1p9JtvThDw1KUJ-28" value="" style="edgeStyle=orthogonalEdgeStyle;rounded=0;orthogonalLoop=1;jettySize=auto;html=1;" edge="1" parent="1" source="7fW1Iq1p9JtvThDw1KUJ-23" target="7fW1Iq1p9JtvThDw1KUJ-27">
          <mxGeometry relative="1" as="geometry">
            <Array as="points">
              <mxPoint x="1010" y="-380" />
              <mxPoint x="1010" y="-380" />
            </Array>
          </mxGeometry>
        </mxCell>
        <mxCell id="7fW1Iq1p9JtvThDw1KUJ-51" value="Join Room" style="edgeLabel;html=1;align=center;verticalAlign=middle;resizable=0;points=[];" vertex="1" connectable="0" parent="7fW1Iq1p9JtvThDw1KUJ-28">
          <mxGeometry x="-0.275" y="1" relative="1" as="geometry">
            <mxPoint as="offset" />
          </mxGeometry>
        </mxCell>
        <mxCell id="7fW1Iq1p9JtvThDw1KUJ-23" value="PLAYER NAME:&amp;nbsp;&lt;br&gt;[ input field ]&lt;br&gt;&lt;br&gt;CREATE ROOM&lt;br&gt;JOIN ROOM" style="shape=document;whiteSpace=wrap;html=1;boundedLbl=1;rounded=1;" vertex="1" parent="1">
          <mxGeometry x="920" y="-520" width="120" height="120" as="geometry" />
        </mxCell>
        <mxCell id="7fW1Iq1p9JtvThDw1KUJ-33" style="edgeStyle=orthogonalEdgeStyle;rounded=0;orthogonalLoop=1;jettySize=auto;html=1;exitX=0.5;exitY=1;exitDx=0;exitDy=0;entryX=1;entryY=0.5;entryDx=0;entryDy=0;" edge="1" parent="1" source="7fW1Iq1p9JtvThDw1KUJ-25" target="7fW1Iq1p9JtvThDw1KUJ-29">
          <mxGeometry relative="1" as="geometry">
            <Array as="points">
              <mxPoint x="850" y="-150" />
              <mxPoint x="710" y="-150" />
              <mxPoint x="710" y="-220" />
            </Array>
          </mxGeometry>
        </mxCell>
        <mxCell id="7fW1Iq1p9JtvThDw1KUJ-25" value="PLAYER NAME:&lt;br&gt;[ input field ]&lt;br&gt;&lt;br&gt;ROOM NAME:&lt;br&gt;[ input field ]&lt;br&gt;&lt;br&gt;THEME:&amp;nbsp;&lt;br&gt;DIFFICULTY: easy, inter, hard&lt;br&gt;LIVES: 3, 4, 5...&lt;br&gt;SOUND: on/off" style="whiteSpace=wrap;html=1;rounded=1;" vertex="1" parent="1">
          <mxGeometry x="790" y="-340" width="120" height="170" as="geometry" />
        </mxCell>
        <mxCell id="7fW1Iq1p9JtvThDw1KUJ-34" style="edgeStyle=orthogonalEdgeStyle;rounded=0;orthogonalLoop=1;jettySize=auto;html=1;exitX=0.5;exitY=1;exitDx=0;exitDy=0;" edge="1" parent="1" source="7fW1Iq1p9JtvThDw1KUJ-27">
          <mxGeometry relative="1" as="geometry">
            <mxPoint x="570" y="-220" as="targetPoint" />
            <Array as="points">
              <mxPoint x="1010" y="-150" />
              <mxPoint x="710" y="-150" />
              <mxPoint x="710" y="-220" />
            </Array>
          </mxGeometry>
        </mxCell>
        <mxCell id="7fW1Iq1p9JtvThDw1KUJ-27" value="PLAYER NAME:&lt;br&gt;[ input field]&amp;nbsp;&lt;br&gt;&lt;br&gt;ROOM NAME:&lt;br&gt;[ input field ]" style="whiteSpace=wrap;html=1;rounded=1;" vertex="1" parent="1">
          <mxGeometry x="950" y="-340" width="120" height="170" as="geometry" />
        </mxCell>
        <mxCell id="7fW1Iq1p9JtvThDw1KUJ-39" value="" style="edgeStyle=orthogonalEdgeStyle;rounded=0;orthogonalLoop=1;jettySize=auto;html=1;" edge="1" parent="1" source="7fW1Iq1p9JtvThDw1KUJ-29" target="7fW1Iq1p9JtvThDw1KUJ-38">
          <mxGeometry relative="1" as="geometry" />
        </mxCell>
        <mxCell id="7fW1Iq1p9JtvThDw1KUJ-40" value="Game Ends" style="edgeLabel;html=1;align=center;verticalAlign=middle;resizable=0;points=[];" vertex="1" connectable="0" parent="7fW1Iq1p9JtvThDw1KUJ-39">
          <mxGeometry x="-0.2018" relative="1" as="geometry">
            <mxPoint y="-41" as="offset" />
          </mxGeometry>
        </mxCell>
        <mxCell id="7fW1Iq1p9JtvThDw1KUJ-63" value="No" style="edgeLabel;html=1;align=center;verticalAlign=middle;resizable=0;points=[];" vertex="1" connectable="0" parent="7fW1Iq1p9JtvThDw1KUJ-39">
          <mxGeometry x="0.6583" y="1" relative="1" as="geometry">
            <mxPoint as="offset" />
          </mxGeometry>
        </mxCell>
        <mxCell id="7fW1Iq1p9JtvThDw1KUJ-29" value="Play :)" style="ellipse;whiteSpace=wrap;html=1;" vertex="1" parent="1">
          <mxGeometry x="490" y="-260" width="80" height="80" as="geometry" />
        </mxCell>
        <mxCell id="7fW1Iq1p9JtvThDw1KUJ-32" style="edgeStyle=orthogonalEdgeStyle;rounded=0;orthogonalLoop=1;jettySize=auto;html=1;exitX=0.5;exitY=1;exitDx=0;exitDy=0;entryX=1;entryY=0.5;entryDx=0;entryDy=0;" edge="1" parent="1" target="7fW1Iq1p9JtvThDw1KUJ-29">
          <mxGeometry relative="1" as="geometry">
            <mxPoint x="710.56" y="-380" as="sourcePoint" />
            <mxPoint x="570" y="-252.39999999999986" as="targetPoint" />
            <Array as="points">
              <mxPoint x="711" y="-220" />
            </Array>
          </mxGeometry>
        </mxCell>
        <mxCell id="7fW1Iq1p9JtvThDw1KUJ-42" value="" style="edgeStyle=orthogonalEdgeStyle;rounded=0;orthogonalLoop=1;jettySize=auto;html=1;" edge="1" parent="1" source="7fW1Iq1p9JtvThDw1KUJ-38" target="7fW1Iq1p9JtvThDw1KUJ-41">
          <mxGeometry relative="1" as="geometry" />
        </mxCell>
        <mxCell id="7fW1Iq1p9JtvThDw1KUJ-44" style="edgeStyle=orthogonalEdgeStyle;rounded=0;orthogonalLoop=1;jettySize=auto;html=1;exitX=1;exitY=0.5;exitDx=0;exitDy=0;entryX=1;entryY=0.5;entryDx=0;entryDy=0;" edge="1" parent="1" source="7fW1Iq1p9JtvThDw1KUJ-38" target="7fW1Iq1p9JtvThDw1KUJ-2">
          <mxGeometry relative="1" as="geometry">
            <mxPoint x="1120" y="-770" as="targetPoint" />
            <Array as="points">
              <mxPoint x="1120" y="30" />
              <mxPoint x="1120" y="-770" />
            </Array>
          </mxGeometry>
        </mxCell>
        <mxCell id="7fW1Iq1p9JtvThDw1KUJ-45" value="Main Menu" style="edgeLabel;html=1;align=center;verticalAlign=middle;resizable=0;points=[];" vertex="1" connectable="0" parent="7fW1Iq1p9JtvThDw1KUJ-44">
          <mxGeometry x="-0.8452" y="2" relative="1" as="geometry">
            <mxPoint as="offset" />
          </mxGeometry>
        </mxCell>
        <mxCell id="7fW1Iq1p9JtvThDw1KUJ-46" style="edgeStyle=orthogonalEdgeStyle;rounded=0;orthogonalLoop=1;jettySize=auto;html=1;exitX=0;exitY=0.5;exitDx=0;exitDy=0;" edge="1" parent="1" source="7fW1Iq1p9JtvThDw1KUJ-38">
          <mxGeometry relative="1" as="geometry">
            <mxPoint x="380" y="-220" as="targetPoint" />
            <mxPoint x="430" y="30" as="sourcePoint" />
            <Array as="points">
              <mxPoint x="170" y="30" />
              <mxPoint x="170" y="-220" />
            </Array>
          </mxGeometry>
        </mxCell>
        <mxCell id="7fW1Iq1p9JtvThDw1KUJ-47" value="Play Again" style="edgeLabel;html=1;align=center;verticalAlign=middle;resizable=0;points=[];" vertex="1" connectable="0" parent="7fW1Iq1p9JtvThDw1KUJ-46">
          <mxGeometry x="0.1004" y="3" relative="1" as="geometry">
            <mxPoint x="173" y="118" as="offset" />
          </mxGeometry>
        </mxCell>
        <mxCell id="7fW1Iq1p9JtvThDw1KUJ-38" value="Play Again?&lt;br&gt;Main Menu&lt;br&gt;Leaderboard" style="whiteSpace=wrap;html=1;" vertex="1" parent="1">
          <mxGeometry x="470" width="120" height="60" as="geometry" />
        </mxCell>
        <mxCell id="7fW1Iq1p9JtvThDw1KUJ-48" style="edgeStyle=orthogonalEdgeStyle;rounded=0;orthogonalLoop=1;jettySize=auto;html=1;exitX=1;exitY=0.5;exitDx=0;exitDy=0;" edge="1" parent="1" source="7fW1Iq1p9JtvThDw1KUJ-41">
          <mxGeometry relative="1" as="geometry">
            <mxPoint x="1120" y="-90" as="targetPoint" />
          </mxGeometry>
        </mxCell>
        <mxCell id="7fW1Iq1p9JtvThDw1KUJ-56" value="Main Menu" style="edgeLabel;html=1;align=center;verticalAlign=middle;resizable=0;points=[];" vertex="1" connectable="0" parent="7fW1Iq1p9JtvThDw1KUJ-48">
          <mxGeometry x="-0.6325" y="-1" relative="1" as="geometry">
            <mxPoint x="-1" y="-1" as="offset" />
          </mxGeometry>
        </mxCell>
        <mxCell id="7fW1Iq1p9JtvThDw1KUJ-41" value="Leaderboard&lt;br&gt;&lt;br&gt;MAIN MENU" style="ellipse;whiteSpace=wrap;html=1;" vertex="1" parent="1">
          <mxGeometry x="490" y="140" width="80" height="80" as="geometry" />
        </mxCell>
        <mxCell id="7fW1Iq1p9JtvThDw1KUJ-61" value="" style="edgeStyle=orthogonalEdgeStyle;rounded=0;orthogonalLoop=1;jettySize=auto;html=1;" edge="1" parent="1" source="7fW1Iq1p9JtvThDw1KUJ-57" target="7fW1Iq1p9JtvThDw1KUJ-60">
          <mxGeometry relative="1" as="geometry" />
        </mxCell>
        <mxCell id="7fW1Iq1p9JtvThDw1KUJ-62" value="Yes" style="edgeLabel;html=1;align=center;verticalAlign=middle;resizable=0;points=[];" vertex="1" connectable="0" parent="7fW1Iq1p9JtvThDw1KUJ-61">
          <mxGeometry x="-0.1556" y="2" relative="1" as="geometry">
            <mxPoint x="-1" as="offset" />
          </mxGeometry>
        </mxCell>
        <mxCell id="7fW1Iq1p9JtvThDw1KUJ-57" value="High Score?" style="ellipse;whiteSpace=wrap;html=1;" vertex="1" parent="1">
          <mxGeometry x="490" y="-130" width="80" height="80" as="geometry" />
        </mxCell>
        <mxCell id="7fW1Iq1p9JtvThDw1KUJ-64" style="edgeStyle=orthogonalEdgeStyle;rounded=0;orthogonalLoop=1;jettySize=auto;html=1;exitX=0.5;exitY=1;exitDx=0;exitDy=0;entryX=0;entryY=0.5;entryDx=0;entryDy=0;" edge="1" parent="1" source="7fW1Iq1p9JtvThDw1KUJ-60" target="7fW1Iq1p9JtvThDw1KUJ-41">
          <mxGeometry relative="1" as="geometry" />
        </mxCell>
        <mxCell id="7fW1Iq1p9JtvThDw1KUJ-65" value="Leaderboard" style="edgeLabel;html=1;align=center;verticalAlign=middle;resizable=0;points=[];" vertex="1" connectable="0" parent="7fW1Iq1p9JtvThDw1KUJ-64">
          <mxGeometry x="-0.8862" y="-2" relative="1" as="geometry">
            <mxPoint as="offset" />
          </mxGeometry>
        </mxCell>
        <mxCell id="7fW1Iq1p9JtvThDw1KUJ-60" value="PLAYER NAME:&lt;br&gt;[ input field ]&lt;br&gt;&lt;br&gt;SUBMIT" style="rounded=1;whiteSpace=wrap;html=1;" vertex="1" parent="1">
          <mxGeometry x="200" y="-140" width="120" height="100" as="geometry" />
        </mxCell>
      </root>
    </mxGraphModel>
  </diagram>
</mxfile>
